<mxfile host="app.diagrams.net" modified="2020-11-12T07:44:47.012Z" agent="5.0 (Macintosh; Intel Mac OS X 10_14_6) AppleWebKit/537.36 (KHTML, like Gecko) Chrome/86.0.4240.111 Safari/537.36" etag="EgiP1WmN734KrRb5K0Iv" version="13.8.9-1" type="github">
  <diagram id="A2X3Ym9N8bFuqVT1jhuG" name="Page-1">
    <mxGraphModel dx="1426" dy="771" grid="1" gridSize="10" guides="1" tooltips="1" connect="1" arrows="1" fold="1" page="1" pageScale="1" pageWidth="827" pageHeight="1169" math="0" shadow="0">
      <root>
        <mxCell id="0" />
        <mxCell id="1" parent="0" />
        <mxCell id="bW1z0DSRC-lEDZSt9oNP-1" value="" style="rounded=0;whiteSpace=wrap;html=1;" vertex="1" parent="1">
          <mxGeometry x="230" y="140" width="390" height="30" as="geometry" />
        </mxCell>
        <mxCell id="bW1z0DSRC-lEDZSt9oNP-2" value="" style="rounded=0;whiteSpace=wrap;html=1;" vertex="1" parent="1">
          <mxGeometry x="230" y="170" width="30" height="510" as="geometry" />
        </mxCell>
        <mxCell id="bW1z0DSRC-lEDZSt9oNP-3" value="" style="rounded=0;whiteSpace=wrap;html=1;" vertex="1" parent="1">
          <mxGeometry x="590" y="170" width="30" height="510" as="geometry" />
        </mxCell>
        <mxCell id="bW1z0DSRC-lEDZSt9oNP-5" value="" style="endArrow=none;html=1;" edge="1" parent="1">
          <mxGeometry width="50" height="50" relative="1" as="geometry">
            <mxPoint x="140" y="680" as="sourcePoint" />
            <mxPoint x="720" y="680" as="targetPoint" />
          </mxGeometry>
        </mxCell>
        <mxCell id="bW1z0DSRC-lEDZSt9oNP-7" value="&lt;font style=&quot;font-size: 20px&quot;&gt;Face&lt;/font&gt;" style="rounded=0;whiteSpace=wrap;html=1;fillColor=#dae8fc;strokeColor=#6c8ebf;strokeWidth=1;" vertex="1" parent="1">
          <mxGeometry x="260" y="170" width="330" height="460" as="geometry" />
        </mxCell>
        <mxCell id="bW1z0DSRC-lEDZSt9oNP-16" value="" style="rounded=0;whiteSpace=wrap;html=1;strokeWidth=2;fontSize=16;fillColor=#f8cecc;strokeColor=#b85450;" vertex="1" parent="1">
          <mxGeometry x="1157" y="610" width="337" height="70" as="geometry" />
        </mxCell>
        <mxCell id="bW1z0DSRC-lEDZSt9oNP-21" value="" style="rounded=0;whiteSpace=wrap;html=1;labelBackgroundColor=none;strokeWidth=1;fontSize=10;fillColor=#fff2cc;strokeColor=#d6b656;" vertex="1" parent="1">
          <mxGeometry x="827" y="570" width="330" height="110" as="geometry" />
        </mxCell>
        <mxCell id="bW1z0DSRC-lEDZSt9oNP-27" value="" style="endArrow=none;html=1;fontSize=10;exitX=0;exitY=0.5;exitDx=0;exitDy=0;entryX=1;entryY=0.5;entryDx=0;entryDy=0;strokeWidth=2;" edge="1" parent="1" source="bW1z0DSRC-lEDZSt9oNP-21" target="bW1z0DSRC-lEDZSt9oNP-21">
          <mxGeometry width="50" height="50" relative="1" as="geometry">
            <mxPoint x="960" y="680" as="sourcePoint" />
            <mxPoint x="1010" y="630" as="targetPoint" />
          </mxGeometry>
        </mxCell>
        <mxCell id="bW1z0DSRC-lEDZSt9oNP-28" value="curve1" style="edgeLabel;html=1;align=center;verticalAlign=middle;resizable=0;points=[];fontSize=16;" vertex="1" connectable="0" parent="bW1z0DSRC-lEDZSt9oNP-27">
          <mxGeometry x="0.6242" y="-3" relative="1" as="geometry">
            <mxPoint x="-105" y="-3" as="offset" />
          </mxGeometry>
        </mxCell>
        <mxCell id="bW1z0DSRC-lEDZSt9oNP-29" value="&lt;font style=&quot;font-size: 16px&quot;&gt;下边框&lt;/font&gt;" style="text;html=1;strokeColor=none;fillColor=none;align=center;verticalAlign=middle;whiteSpace=wrap;rounded=0;labelBackgroundColor=none;fontSize=10;" vertex="1" parent="1">
          <mxGeometry x="938" y="690" width="108" height="20" as="geometry" />
        </mxCell>
        <mxCell id="bW1z0DSRC-lEDZSt9oNP-31" value="&lt;font style=&quot;font-size: 16px&quot;&gt;吊脚&lt;/font&gt;" style="text;html=1;strokeColor=none;fillColor=none;align=center;verticalAlign=middle;whiteSpace=wrap;rounded=0;labelBackgroundColor=none;fontSize=10;" vertex="1" parent="1">
          <mxGeometry x="1310" y="690" width="40" height="20" as="geometry" />
        </mxCell>
        <mxCell id="bW1z0DSRC-lEDZSt9oNP-33" value="" style="endArrow=none;html=1;fontSize=10;entryX=1;entryY=0.5;entryDx=0;entryDy=0;exitX=0;exitY=0.5;exitDx=0;exitDy=0;strokeWidth=2;" edge="1" parent="1" source="bW1z0DSRC-lEDZSt9oNP-16" target="bW1z0DSRC-lEDZSt9oNP-16">
          <mxGeometry width="50" height="50" relative="1" as="geometry">
            <mxPoint x="1230" y="645" as="sourcePoint" />
            <mxPoint x="1010" y="620" as="targetPoint" />
          </mxGeometry>
        </mxCell>
        <mxCell id="bW1z0DSRC-lEDZSt9oNP-34" value="curve2" style="edgeLabel;html=1;align=center;verticalAlign=middle;resizable=0;points=[];fontSize=16;" vertex="1" connectable="0" parent="bW1z0DSRC-lEDZSt9oNP-33">
          <mxGeometry x="-0.0606" y="-3" relative="1" as="geometry">
            <mxPoint x="10" y="-3" as="offset" />
          </mxGeometry>
        </mxCell>
        <mxCell id="bW1z0DSRC-lEDZSt9oNP-35" value="" style="shape=curlyBracket;whiteSpace=wrap;html=1;rounded=1;labelBackgroundColor=none;strokeWidth=1;fontSize=16;rotation=-181;size=0.5;" vertex="1" parent="1">
          <mxGeometry x="1157.04" y="624" width="20" height="20" as="geometry" />
        </mxCell>
        <mxCell id="bW1z0DSRC-lEDZSt9oNP-50" value="" style="endArrow=classic;startArrow=classic;html=1;fontSize=16;" edge="1" parent="1">
          <mxGeometry width="50" height="50" relative="1" as="geometry">
            <mxPoint x="810" y="680" as="sourcePoint" />
            <mxPoint x="810" y="570" as="targetPoint" />
          </mxGeometry>
        </mxCell>
        <mxCell id="bW1z0DSRC-lEDZSt9oNP-52" value="th1" style="edgeLabel;html=1;align=center;verticalAlign=middle;resizable=0;points=[];fontSize=16;" vertex="1" connectable="0" parent="bW1z0DSRC-lEDZSt9oNP-50">
          <mxGeometry x="-0.1091" relative="1" as="geometry">
            <mxPoint as="offset" />
          </mxGeometry>
        </mxCell>
        <mxCell id="bW1z0DSRC-lEDZSt9oNP-53" value="" style="endArrow=classic;startArrow=classic;html=1;fontSize=16;" edge="1" parent="1">
          <mxGeometry width="50" height="50" relative="1" as="geometry">
            <mxPoint x="1510" y="680" as="sourcePoint" />
            <mxPoint x="1510" y="610" as="targetPoint" />
          </mxGeometry>
        </mxCell>
        <mxCell id="bW1z0DSRC-lEDZSt9oNP-54" value="th2" style="edgeLabel;html=1;align=center;verticalAlign=middle;resizable=0;points=[];fontSize=16;" vertex="1" connectable="0" parent="bW1z0DSRC-lEDZSt9oNP-53">
          <mxGeometry x="0.0286" relative="1" as="geometry">
            <mxPoint as="offset" />
          </mxGeometry>
        </mxCell>
        <mxCell id="bW1z0DSRC-lEDZSt9oNP-56" value="" style="endArrow=classic;html=1;fontSize=16;" edge="1" parent="1">
          <mxGeometry width="50" height="50" relative="1" as="geometry">
            <mxPoint x="1177.04" y="635" as="sourcePoint" />
            <mxPoint x="1227.04" y="585" as="targetPoint" />
          </mxGeometry>
        </mxCell>
        <mxCell id="bW1z0DSRC-lEDZSt9oNP-57" value="(th1-th2)/2" style="text;html=1;strokeColor=none;fillColor=none;align=center;verticalAlign=middle;whiteSpace=wrap;rounded=0;labelBackgroundColor=none;fontSize=16;" vertex="1" parent="1">
          <mxGeometry x="1220" y="565" width="90" height="20" as="geometry" />
        </mxCell>
        <mxCell id="bW1z0DSRC-lEDZSt9oNP-59" value="Virtual Separator(吊脚)" style="rounded=0;whiteSpace=wrap;html=1;labelBackgroundColor=none;strokeWidth=1;fontSize=16;fillColor=#f8cecc;strokeColor=#b85450;" vertex="1" parent="1">
          <mxGeometry x="260" y="630" width="330" height="50" as="geometry" />
        </mxCell>
      </root>
    </mxGraphModel>
  </diagram>
</mxfile>
